<svg width="116" height="141" viewBox="0 0 116 141" fill="none" xmlns="http://www.w3.org/2000/svg">
<path d="M112.165 61.9753L81.3795 8.4194C78.3856 3.22187 72.8514 0 66.8636 0H5.35272C3.47775 0 1.69352 0.334345 0 0.911849L3.53824 19.6655C7.10672 38.6016 21.8645 53.4039 40.7048 57.0209L90.4519 66.5345C94.7159 67.3552 94.7159 73.495 90.4519 74.3157L40.7048 83.8293C21.8645 87.4159 7.13696 102.249 3.53824 121.185L0 139.938C1.69352 140.516 3.47775 140.85 5.35272 140.85H66.8939C72.8816 140.85 78.4158 137.628 81.4097 132.431L112.195 78.8749C115.189 73.6774 115.189 67.2336 112.195 62.0361L112.165 61.9753Z" fill="#474DF0"/>
</svg>
