<svg width="573" height="141" viewBox="0 0 573 141" fill="none" xmlns="http://www.w3.org/2000/svg">
<path d="M112.165 61.9753L81.3795 8.4194C78.3856 3.22187 72.8514 0 66.8636 0H5.35272C3.47775 0 1.69352 0.334345 0 0.911849L3.53824 19.6655C7.10672 38.6016 21.8645 53.4039 40.7048 57.0209L90.4519 66.5345C94.7159 67.3552 94.7159 73.495 90.4519 74.3157L40.7048 83.8293C21.8645 87.4159 7.13696 102.249 3.53824 121.185L0 139.938C1.69352 140.516 3.47775 140.85 5.35272 140.85H66.8939C72.8816 140.85 78.4158 137.628 81.4097 132.431L112.195 78.8749C115.189 73.6774 115.189 67.2336 112.195 62.0361L112.165 61.9753Z" fill="#474DF0"/>
<path d="M143.574 115.925V24.5942H176.844C200.069 24.5942 223.293 37.511 223.293 69.9987C223.293 99.616 204.374 115.925 176.844 115.925H143.574ZM175.018 101.312C193.806 101.312 206.853 90.4829 206.853 70.1292C206.853 49.384 193.023 39.2072 175.018 39.2072H159.492V101.312H175.018ZM267.863 117.621C248.423 117.621 234.201 103.661 234.201 82.3936C234.201 61.1266 248.293 46.5136 267.733 46.5136C286.13 46.5136 298.525 59.9523 298.525 79.0013V85.264H261.079C254.947 85.264 252.729 83.8288 252.729 79.9146H249.336V85.0031C249.336 97.137 257.034 104.052 267.733 104.052C275.822 104.052 281.954 100.268 286.26 92.701L298.525 99.616C292.131 111.489 280.911 117.621 267.863 117.621ZM282.998 74.1738C282.607 65.3017 276.997 59.1695 267.342 59.1695C258.078 59.1695 251.424 64.6493 249.728 74.1738H282.998ZM312.641 140.584V48.3402H328.037V59.8218H331.429C334.3 52.2544 340.954 46.5136 352.174 46.5136C370.049 46.5136 382.574 61.257 382.574 82.2631C382.574 103.4 370.049 117.621 352.305 117.621C341.867 117.621 334.56 112.794 331.429 104.313H328.037V140.584H312.641ZM347.477 103.661C358.437 103.661 366.787 96.0933 366.787 82.1327C366.787 68.5635 358.698 60.6047 347.347 60.6047C336.126 60.6047 328.559 68.5635 328.559 82.1327C328.559 95.7018 336.126 103.661 347.477 103.661ZM396.492 115.925V24.5942H411.888V115.925H396.492ZM461.704 117.621C441.089 117.621 426.215 104.444 426.215 82.1327C426.215 59.9523 440.959 46.5136 461.704 46.5136C481.797 46.5136 497.193 59.4304 497.193 82.1327C497.193 104.313 482.319 117.621 461.704 117.621ZM461.704 103.53C472.403 103.53 481.405 95.5714 481.405 82.1327C481.405 68.5635 472.142 60.7351 461.704 60.7351C450.222 60.7351 442.003 68.433 442.003 82.1327C442.003 95.7018 449.962 103.53 461.704 103.53ZM516.806 140.193L527.505 115.012L502.193 48.3402H519.285L535.725 93.7447H538.987C538.987 87.8735 539.639 84.8726 541.466 80.4365L553.861 48.3402H570.431L533.507 140.193H516.806Z" fill="#474747"/>
</svg>
